<svg xmlns="http://www.w3.org/2000/svg" xmlns:xlink="http://www.w3.org/1999/xlink" preserveAspectRatio="xMidYMid" width="22" height="28" viewBox="0 0 23 24">
  <defs>
    <style>

      .cls-2 {
        fill: #bb341b;
        filter: url(#filter-chain-1);
      }
    </style>

    <filter id="filter-chain-1" filterUnits="userSpaceOnUse">
      <feOffset in="SourceAlpha" dx="0" dy="1"/>
      <feGaussianBlur result="dropShadow" stdDeviation="0"/>
      <feFlood flood-color="#ffffff" flood-opacity="0.6"/>
      <feComposite operator="in" in2="dropShadow"/>
      <feComposite in="SourceGraphic" result="dropShadow"/>
      <feFlood flood-color="#bb341b" flood-opacity="1"/>
      <feComposite operator="in" in2="SourceGraphic"/>
      <feBlend mode="normal" in2="dropShadow" result="colorOverlay"/>
    </filter>
  </defs>
  <path d="M11.225,23.013 C5.038,23.013 0.005,17.980 0.005,11.793 C0.005,5.606 5.038,0.572 11.225,0.572 C17.412,0.572 22.446,5.606 22.446,11.793 C22.446,17.980 17.412,23.013 11.225,23.013 ZM20.688,13.329 C20.360,13.225 17.722,12.438 14.718,12.919 C15.972,16.364 16.482,19.170 16.580,19.753 C18.730,18.299 20.261,15.996 20.688,13.329 ZM14.969,20.630 C14.827,19.789 14.270,16.859 12.924,13.362 C12.903,13.369 12.882,13.376 12.861,13.383 C7.456,15.267 5.515,19.016 5.342,19.369 C6.968,20.636 9.010,21.392 11.225,21.392 C12.553,21.392 13.818,21.120 14.969,20.630 ZM4.105,18.216 C4.322,17.844 6.952,13.489 11.895,11.891 C12.020,11.851 12.146,11.813 12.273,11.777 C12.032,11.233 11.770,10.688 11.496,10.151 C6.710,11.583 2.065,11.523 1.646,11.515 C1.643,11.612 1.641,11.710 1.641,11.808 C1.641,14.269 2.574,16.517 4.105,18.216 ZM1.844,9.845 C2.272,9.850 6.221,9.867 10.704,8.677 C9.116,5.854 7.403,3.481 7.151,3.134 C4.469,4.399 2.465,6.871 1.844,9.845 ZM8.979,2.490 C9.244,2.845 10.985,5.215 12.555,8.100 C15.963,6.823 17.406,4.884 17.579,4.638 C15.886,3.137 13.661,2.224 11.225,2.224 C10.452,2.224 9.700,2.316 8.979,2.490 ZM18.644,5.747 C18.442,6.020 16.836,8.079 13.292,9.526 C13.515,9.982 13.729,10.447 13.928,10.914 C13.999,11.080 14.067,11.244 14.135,11.408 C17.324,11.008 20.492,11.650 20.808,11.717 C20.787,9.455 19.979,7.378 18.644,5.747 Z" id="path-1" class="cls-2" fill-rule="evenodd"/>
</svg>
