<svg xmlns="http://www.w3.org/2000/svg" xmlns:xlink="http://www.w3.org/1999/xlink" preserveAspectRatio="xMidYMid" width="30" height="22" viewBox="0 0 30 22">
  <defs>
    <style>

      .cls-2 {
        fill: #ffffff;
        filter: url(#drop-shadow-1);
      }
    </style>

    <filter id="drop-shadow-1" filterUnits="userSpaceOnUse">
      <feOffset in="SourceAlpha" dx="0" dy="1"/>
      <feGaussianBlur result="dropShadow" stdDeviation="1"/>
      <feFlood flood-color="#000000" flood-opacity="0.13"/>
      <feComposite operator="in" in2="dropShadow"/>
      <feComposite in="SourceGraphic" result="dropShadow"/>
    </filter>
  </defs>
  <path d="M27.137,9.949 C26.248,10.100 24.958,9.943 24.275,9.658 C25.695,9.541 26.656,8.895 27.026,8.019 C26.515,8.334 24.925,8.677 24.049,8.350 C24.005,8.144 23.957,7.948 23.909,7.771 C23.242,5.313 20.952,3.333 18.554,3.573 C18.747,3.494 18.944,3.421 19.142,3.355 C19.404,3.260 20.954,3.008 20.710,2.461 C20.504,1.979 18.611,2.823 18.255,2.935 C18.725,2.758 19.503,2.454 19.586,1.912 C18.866,2.011 18.158,2.352 17.612,2.848 C17.809,2.636 17.959,2.377 17.990,2.098 C16.068,3.328 14.944,5.805 14.036,8.210 C13.323,7.517 12.689,6.972 12.122,6.669 C10.530,5.815 8.627,4.924 5.640,3.813 C5.548,4.802 6.128,6.119 7.800,6.993 C7.438,6.944 6.776,7.054 6.247,7.179 C6.462,8.314 7.167,9.248 9.076,9.699 C8.203,9.756 7.752,9.956 7.344,10.383 C7.741,11.172 8.712,12.099 10.454,11.909 C8.515,12.746 9.663,14.296 11.242,14.064 C8.551,16.848 4.307,16.642 1.870,14.315 C8.232,22.993 22.062,19.446 24.122,11.088 C25.668,11.101 26.574,10.553 27.137,9.949 Z" id="path-1" class="cls-2" fill-rule="evenodd"/>
</svg>
